# xmcd
# 
# Track frame offsets:
#     150
#     16850
#     34082
#     50222
#     65760
#     79831
#     95107
#     110883
#     124957
#     143492
#     160046
#     174296
#     187324
#     204950
#     219375
#     237121
# 
# Disc length: 3375
# 
# Revision: 3
# Processed by: cddbd v1.5.2PL0 Copyright (c) Steve Scherf et al.
# Submitted via: BonkEnc v1.0
# 
DISCID=e60d2d10
DTITLE=Forró Anjo Azul - Forró Anjo Azul Vol. 01
DYEAR=1996
DGENRE=Forró
TTITLE0=Agora é tarde
TTITLE1=Não tem ninguém em seu lugar
TTITLE2=Tô apaixonado por você
TTITLE3=Curva perigosa
TTITLE4=Alfabeto do amor
TTITLE5=Os ponteiros do relógio
TTITLE6=Sete semanas
TTITLE7=Amor da minha vida
TTITLE8=Conversa com o coração
TTITLE9=Meu anjo azul
TTITLE10=Nosso amor é 10
TTITLE11=Nesse apartamento
TTITLE12=Tô frágil
TTITLE13=Luz de vela
TTITLE14=Amo e sou amado
TTITLE15=Pra me encher de amor
EXTD=Banda Anjo Azul do cantor e compositor Berg Rebelo
EXTT0=
EXTT1=
EXTT2=
EXTT3=
EXTT4=
EXTT5=
EXTT6=
EXTT7=
EXTT8=
EXTT9=
EXTT10=
EXTT11=
EXTT12=
EXTT13=
EXTT14=
EXTT15=
PLAYORDER=
